<mxfile host="Electron" agent="Mozilla/5.0 (Windows NT 10.0; Win64; x64) AppleWebKit/537.36 (KHTML, like Gecko) draw.io/26.0.16 Chrome/132.0.6834.196 Electron/34.2.0 Safari/537.36" version="26.0.16">
  <diagram name="Page-1" id="MIYB6ssV-rcns8b-TDU5">
    <mxGraphModel dx="506" dy="423" grid="0" gridSize="10" guides="1" tooltips="1" connect="1" arrows="1" fold="1" page="1" pageScale="1" pageWidth="2000" pageHeight="2000" math="0" shadow="0">
      <root>
        <mxCell id="0" />
        <mxCell id="1" parent="0" />
        <mxCell id="eTvwBITU0j58XbJrMVR_-1" value="Hệ thống" style="swimlane;startSize=23;" vertex="1" parent="1">
          <mxGeometry x="370" y="190" width="425" height="785" as="geometry" />
        </mxCell>
        <mxCell id="eTvwBITU0j58XbJrMVR_-2" value="Hiển thị cảnh báo khóa tài khoản nhân viên chỉ định" style="rounded=1;whiteSpace=wrap;html=1;arcSize=40;fontColor=#000000;fillColor=#FFFFFF;strokeColor=#000000;" vertex="1" parent="eTvwBITU0j58XbJrMVR_-1">
          <mxGeometry x="98" y="118" width="150" height="40" as="geometry" />
        </mxCell>
        <mxCell id="eTvwBITU0j58XbJrMVR_-3" style="edgeStyle=orthogonalEdgeStyle;rounded=0;orthogonalLoop=1;jettySize=auto;html=1;exitX=0.5;exitY=1;exitDx=0;exitDy=0;" edge="1" parent="eTvwBITU0j58XbJrMVR_-1" source="eTvwBITU0j58XbJrMVR_-4" target="eTvwBITU0j58XbJrMVR_-7">
          <mxGeometry relative="1" as="geometry">
            <mxPoint x="445" y="810" as="targetPoint" />
          </mxGeometry>
        </mxCell>
        <mxCell id="eTvwBITU0j58XbJrMVR_-49" value="[Xác nhận]" style="edgeLabel;html=1;align=center;verticalAlign=middle;resizable=0;points=[];" vertex="1" connectable="0" parent="eTvwBITU0j58XbJrMVR_-3">
          <mxGeometry x="-0.3517" y="3" relative="1" as="geometry">
            <mxPoint as="offset" />
          </mxGeometry>
        </mxCell>
        <mxCell id="eTvwBITU0j58XbJrMVR_-47" style="edgeStyle=orthogonalEdgeStyle;rounded=0;orthogonalLoop=1;jettySize=auto;html=1;exitX=0;exitY=0.5;exitDx=0;exitDy=0;entryX=0.449;entryY=0.093;entryDx=0;entryDy=0;entryPerimeter=0;" edge="1" parent="eTvwBITU0j58XbJrMVR_-1" source="eTvwBITU0j58XbJrMVR_-4" target="eTvwBITU0j58XbJrMVR_-50">
          <mxGeometry relative="1" as="geometry">
            <mxPoint x="174" y="461" as="targetPoint" />
          </mxGeometry>
        </mxCell>
        <mxCell id="eTvwBITU0j58XbJrMVR_-48" value="[Không&lt;div&gt;xác nhận]&lt;/div&gt;" style="edgeLabel;html=1;align=center;verticalAlign=middle;resizable=0;points=[];" vertex="1" connectable="0" parent="eTvwBITU0j58XbJrMVR_-47">
          <mxGeometry x="-0.2075" y="-1" relative="1" as="geometry">
            <mxPoint as="offset" />
          </mxGeometry>
        </mxCell>
        <mxCell id="eTvwBITU0j58XbJrMVR_-4" value="" style="rhombus;whiteSpace=wrap;html=1;" vertex="1" parent="eTvwBITU0j58XbJrMVR_-1">
          <mxGeometry x="298" y="379" width="50" height="40" as="geometry" />
        </mxCell>
        <mxCell id="eTvwBITU0j58XbJrMVR_-5" value="" style="ellipse;html=1;shape=endState;fillColor=#000000;strokeColor=#000000;" vertex="1" parent="eTvwBITU0j58XbJrMVR_-1">
          <mxGeometry x="233" y="663" width="30" height="30" as="geometry" />
        </mxCell>
        <mxCell id="eTvwBITU0j58XbJrMVR_-6" style="edgeStyle=orthogonalEdgeStyle;shape=connector;rounded=0;orthogonalLoop=1;jettySize=auto;html=1;exitX=0.5;exitY=1;exitDx=0;exitDy=0;entryX=0.5;entryY=0;entryDx=0;entryDy=0;strokeColor=default;align=center;verticalAlign=middle;fontFamily=Helvetica;fontSize=11;fontColor=default;labelBackgroundColor=default;startFill=0;endArrow=classic;endFill=1;" edge="1" parent="eTvwBITU0j58XbJrMVR_-1" source="eTvwBITU0j58XbJrMVR_-7" target="eTvwBITU0j58XbJrMVR_-9">
          <mxGeometry relative="1" as="geometry">
            <mxPoint x="201" y="524" as="targetPoint" />
          </mxGeometry>
        </mxCell>
        <mxCell id="eTvwBITU0j58XbJrMVR_-7" value="Xử lý thao tác" style="rounded=1;whiteSpace=wrap;html=1;arcSize=40;fontColor=#000000;fillColor=#FFFFFF;strokeColor=#000000;" vertex="1" parent="eTvwBITU0j58XbJrMVR_-1">
          <mxGeometry x="263" y="464" width="120" height="40" as="geometry" />
        </mxCell>
        <mxCell id="eTvwBITU0j58XbJrMVR_-54" style="edgeStyle=orthogonalEdgeStyle;rounded=0;orthogonalLoop=1;jettySize=auto;html=1;exitX=0.5;exitY=1;exitDx=0;exitDy=0;entryX=1;entryY=0.5;entryDx=0;entryDy=0;" edge="1" parent="eTvwBITU0j58XbJrMVR_-1" source="eTvwBITU0j58XbJrMVR_-9" target="eTvwBITU0j58XbJrMVR_-52">
          <mxGeometry relative="1" as="geometry" />
        </mxCell>
        <mxCell id="eTvwBITU0j58XbJrMVR_-9" value="Thông báo thành công" style="rounded=1;whiteSpace=wrap;html=1;arcSize=40;fontColor=#000000;fillColor=#FFFFFF;strokeColor=#000000;" vertex="1" parent="eTvwBITU0j58XbJrMVR_-1">
          <mxGeometry x="260" y="533" width="122" height="40" as="geometry" />
        </mxCell>
        <mxCell id="eTvwBITU0j58XbJrMVR_-42" style="edgeStyle=orthogonalEdgeStyle;rounded=0;orthogonalLoop=1;jettySize=auto;html=1;exitX=0.5;exitY=1;exitDx=0;exitDy=0;" edge="1" parent="eTvwBITU0j58XbJrMVR_-1" source="eTvwBITU0j58XbJrMVR_-40" target="eTvwBITU0j58XbJrMVR_-4">
          <mxGeometry relative="1" as="geometry" />
        </mxCell>
        <mxCell id="eTvwBITU0j58XbJrMVR_-40" value="Kiểm tra xác nhận" style="rounded=1;whiteSpace=wrap;html=1;arcSize=40;fontColor=#000000;fillColor=#FFFFFF;strokeColor=#000000;" vertex="1" parent="eTvwBITU0j58XbJrMVR_-1">
          <mxGeometry x="263" y="307" width="120" height="40" as="geometry" />
        </mxCell>
        <mxCell id="eTvwBITU0j58XbJrMVR_-53" style="edgeStyle=orthogonalEdgeStyle;rounded=0;orthogonalLoop=1;jettySize=auto;html=1;exitX=0.5;exitY=1;exitDx=0;exitDy=0;entryX=0;entryY=0.5;entryDx=0;entryDy=0;" edge="1" parent="eTvwBITU0j58XbJrMVR_-1" source="eTvwBITU0j58XbJrMVR_-50" target="eTvwBITU0j58XbJrMVR_-52">
          <mxGeometry relative="1" as="geometry" />
        </mxCell>
        <mxCell id="eTvwBITU0j58XbJrMVR_-50" value="Thông báo xác nhận cảnh báo thất bại" style="rounded=1;whiteSpace=wrap;html=1;arcSize=40;fontColor=#000000;fillColor=#FFFFFF;strokeColor=#000000;" vertex="1" parent="eTvwBITU0j58XbJrMVR_-1">
          <mxGeometry x="118" y="467" width="122" height="40" as="geometry" />
        </mxCell>
        <mxCell id="eTvwBITU0j58XbJrMVR_-52" value="" style="rhombus;whiteSpace=wrap;html=1;" vertex="1" parent="eTvwBITU0j58XbJrMVR_-1">
          <mxGeometry x="223" y="596" width="50" height="40" as="geometry" />
        </mxCell>
        <mxCell id="eTvwBITU0j58XbJrMVR_-55" style="edgeStyle=orthogonalEdgeStyle;rounded=0;orthogonalLoop=1;jettySize=auto;html=1;exitX=0.5;exitY=1;exitDx=0;exitDy=0;entryX=0.477;entryY=0.156;entryDx=0;entryDy=0;entryPerimeter=0;" edge="1" parent="eTvwBITU0j58XbJrMVR_-1" source="eTvwBITU0j58XbJrMVR_-52" target="eTvwBITU0j58XbJrMVR_-5">
          <mxGeometry relative="1" as="geometry" />
        </mxCell>
        <mxCell id="eTvwBITU0j58XbJrMVR_-27" value="Quản trị viên" style="swimlane;startSize=23;" vertex="1" parent="1">
          <mxGeometry x="40" y="190" width="330" height="784" as="geometry" />
        </mxCell>
        <mxCell id="eTvwBITU0j58XbJrMVR_-28" value="Chọn Khóa tài khoản" style="rounded=1;whiteSpace=wrap;html=1;arcSize=40;fontColor=#000000;fillColor=#FFFFFF;strokeColor=#000000;" vertex="1" parent="eTvwBITU0j58XbJrMVR_-27">
          <mxGeometry x="110" y="118" width="130" height="40" as="geometry" />
        </mxCell>
        <mxCell id="eTvwBITU0j58XbJrMVR_-29" value="" style="ellipse;html=1;shape=startState;fillColor=#000000;strokeColor=#000000;" vertex="1" parent="eTvwBITU0j58XbJrMVR_-27">
          <mxGeometry x="160" y="42" width="30" height="30" as="geometry" />
        </mxCell>
        <mxCell id="eTvwBITU0j58XbJrMVR_-30" value="" style="edgeStyle=orthogonalEdgeStyle;html=1;verticalAlign=bottom;endArrow=open;endSize=8;strokeColor=#000000;rounded=0;entryX=0.5;entryY=0;entryDx=0;entryDy=0;" edge="1" parent="eTvwBITU0j58XbJrMVR_-27" source="eTvwBITU0j58XbJrMVR_-29" target="eTvwBITU0j58XbJrMVR_-28">
          <mxGeometry relative="1" as="geometry">
            <mxPoint x="90" y="130" as="targetPoint" />
          </mxGeometry>
        </mxCell>
        <mxCell id="eTvwBITU0j58XbJrMVR_-32" value="Xác nhận khóa tài khoản" style="rounded=1;whiteSpace=wrap;html=1;arcSize=40;fontColor=#000000;fillColor=#FFFFFF;strokeColor=#000000;" vertex="1" parent="eTvwBITU0j58XbJrMVR_-27">
          <mxGeometry x="115" y="220" width="120" height="40" as="geometry" />
        </mxCell>
        <mxCell id="eTvwBITU0j58XbJrMVR_-34" style="edgeStyle=orthogonalEdgeStyle;rounded=0;orthogonalLoop=1;jettySize=auto;html=1;exitX=1;exitY=0.5;exitDx=0;exitDy=0;" edge="1" parent="1" source="eTvwBITU0j58XbJrMVR_-28" target="eTvwBITU0j58XbJrMVR_-2">
          <mxGeometry relative="1" as="geometry" />
        </mxCell>
        <mxCell id="eTvwBITU0j58XbJrMVR_-35" style="edgeStyle=orthogonalEdgeStyle;rounded=0;orthogonalLoop=1;jettySize=auto;html=1;exitX=0.5;exitY=1;exitDx=0;exitDy=0;entryX=1;entryY=0.5;entryDx=0;entryDy=0;" edge="1" parent="1" source="eTvwBITU0j58XbJrMVR_-2" target="eTvwBITU0j58XbJrMVR_-32">
          <mxGeometry relative="1" as="geometry" />
        </mxCell>
        <mxCell id="eTvwBITU0j58XbJrMVR_-45" style="edgeStyle=orthogonalEdgeStyle;rounded=0;orthogonalLoop=1;jettySize=auto;html=1;exitX=0.5;exitY=1;exitDx=0;exitDy=0;entryX=0;entryY=0.5;entryDx=0;entryDy=0;" edge="1" parent="1" source="eTvwBITU0j58XbJrMVR_-32" target="eTvwBITU0j58XbJrMVR_-40">
          <mxGeometry relative="1" as="geometry" />
        </mxCell>
      </root>
    </mxGraphModel>
  </diagram>
</mxfile>
